<?xml version="1.0" encoding="UTF-8" standalone="no"?>
<!DOCTYPE svg PUBLIC "-//W3C//DTD SVG 1.1//EN"
 "http://www.w3.org/Graphics/SVG/1.1/DTD/svg11.dtd">
<!-- Generated by graphviz version 8.1.0 (20230707.0739)
 -->
<!-- Pages: 1 -->
<svg width="686pt" height="295pt"
 viewBox="0.00 0.00 686.25 295.41" xmlns="http://www.w3.org/2000/svg" xmlns:xlink="http://www.w3.org/1999/xlink">
<g id="graph0" class="graph" transform="scale(1 1) rotate(0) translate(4 291.41)">
<polygon fill="white" stroke="none" points="-4,4 -4,-291.41 682.25,-291.41 682.25,4 -4,4"/>
<!-- lct -->
<g id="node1" class="node">
<title>lct</title>
<polygon fill="lightgray" stroke="black" points="25,-287.41 0,-287.41 0,-268.16 25,-268.16 25,-287.41"/>
<text text-anchor="middle" x="12.5" y="-274.86" font-family="Times New Roman,serif" font-size="9.00">lct</text>
</g>
<!-- dlv_ay -->
<g id="node2" class="node">
<title>dlv_ay</title>
<polygon fill="lightgray" stroke="black" points="83.88,-287.41 43.12,-287.41 43.12,-268.16 83.88,-268.16 83.88,-287.41"/>
<text text-anchor="middle" x="63.5" y="-274.86" font-family="Times New Roman,serif" font-size="9.00">dlv_ay</text>
</g>
<!-- dim -->
<g id="node3" class="node">
<title>dim</title>
<polygon fill="lightgray" stroke="black" points="131.25,-287.41 101.75,-287.41 101.75,-268.16 131.25,-268.16 131.25,-287.41"/>
<text text-anchor="middle" x="116.5" y="-274.86" font-family="Times New Roman,serif" font-size="9.00">dim</text>
</g>
<!-- dd -->
<g id="node4" class="node">
<title>dd</title>
<polygon fill="lightgray" stroke="black" points="174,-287.41 149,-287.41 149,-268.16 174,-268.16 174,-287.41"/>
<text text-anchor="middle" x="161.5" y="-274.86" font-family="Times New Roman,serif" font-size="9.00">dd</text>
</g>
<!-- fkd -->
<g id="node5" class="node">
<title>fkd</title>
<polygon fill="lightgray" stroke="black" points="220.5,-287.41 192.5,-287.41 192.5,-268.16 220.5,-268.16 220.5,-287.41"/>
<text text-anchor="middle" x="206.5" y="-274.86" font-family="Times New Roman,serif" font-size="9.00">fkd</text>
</g>
<!-- rmd -->
<g id="node6" class="node">
<title>rmd</title>
<polygon fill="lightgray" stroke="black" points="268.62,-287.41 238.38,-287.41 238.38,-268.16 268.62,-268.16 268.62,-287.41"/>
<text text-anchor="middle" x="253.5" y="-274.86" font-family="Times New Roman,serif" font-size="9.00">rmd</text>
</g>
<!-- mkd -->
<g id="node7" class="node">
<title>mkd</title>
<polygon fill="lightgray" stroke="black" points="318.38,-287.41 286.62,-287.41 286.62,-268.16 318.38,-268.16 318.38,-287.41"/>
<text text-anchor="middle" x="302.5" y="-274.86" font-family="Times New Roman,serif" font-size="9.00">mkd</text>
</g>
<!-- 43498 -->
<g id="node16" class="node">
<title>43498</title>
<ellipse fill="white" stroke="black" cx="302.5" cy="-204.94" rx="27.22" ry="27.22"/>
<text text-anchor="middle" x="302.5" y="-202.01" font-family="Times New Roman,serif" font-size="9.00">43498</text>
</g>
<!-- mkd&#45;&gt;43498 -->
<g id="edge2" class="edge">
<title>mkd&#45;&gt;43498</title>
<path fill="none" stroke="green" stroke-width="0.22" d="M302.5,-267.81C302.5,-261.23 302.5,-251.83 302.5,-242.33"/>
<polygon fill="green" stroke="green" stroke-width="0.22" points="306,-242.52 302.5,-232.52 299,-242.52 306,-242.52"/>
</g>
<!-- mkmr -->
<g id="node8" class="node">
<title>mkmr</title>
<polygon fill="lightgray" stroke="black" points="373,-287.41 336,-287.41 336,-268.16 373,-268.16 373,-287.41"/>
<text text-anchor="middle" x="354.5" y="-274.86" font-family="Times New Roman,serif" font-size="9.00">mkmr</text>
</g>
<!-- md -->
<g id="node9" class="node">
<title>md</title>
<polygon fill="lightgray" stroke="black" points="418.12,-287.41 390.88,-287.41 390.88,-268.16 418.12,-268.16 418.12,-287.41"/>
<text text-anchor="middle" x="404.5" y="-274.86" font-family="Times New Roman,serif" font-size="9.00">md</text>
</g>
<!-- er_100m -->
<g id="node10" class="node">
<title>er_100m</title>
<polygon fill="lightgray" stroke="black" points="483.25,-287.41 435.75,-287.41 435.75,-268.16 483.25,-268.16 483.25,-287.41"/>
<text text-anchor="middle" x="459.5" y="-274.86" font-family="Times New Roman,serif" font-size="9.00">er_100m</text>
</g>
<!-- hcdt_100m -->
<g id="node11" class="node">
<title>hcdt_100m</title>
<polygon fill="lightgray" stroke="black" points="557.75,-287.41 501.25,-287.41 501.25,-268.16 557.75,-268.16 557.75,-287.41"/>
<text text-anchor="middle" x="529.5" y="-274.86" font-family="Times New Roman,serif" font-size="9.00">hcdt_100m</text>
</g>
<!-- w100m -->
<g id="node12" class="node">
<title>w100m</title>
<polygon fill="lightgray" stroke="black" points="619,-287.41 576,-287.41 576,-268.16 619,-268.16 619,-287.41"/>
<text text-anchor="middle" x="597.5" y="-274.86" font-family="Times New Roman,serif" font-size="9.00">w100m</text>
</g>
<!-- ref_bm -->
<g id="node13" class="node">
<title>ref_bm</title>
<polygon fill="lightgray" stroke="black" points="678.25,-287.41 636.75,-287.41 636.75,-268.16 678.25,-268.16 678.25,-287.41"/>
<text text-anchor="middle" x="657.5" y="-274.86" font-family="Times New Roman,serif" font-size="9.00">ref_bm</text>
</g>
<!-- NEAT -->
<g id="node14" class="node">
<title>NEAT</title>
<ellipse fill="lightblue" stroke="black" cx="302.5" cy="-28.81" rx="28.81" ry="28.81"/>
<text text-anchor="middle" x="302.5" y="-25.89" font-family="Times New Roman,serif" font-size="9.00">NEAT</text>
</g>
<!-- 3178 -->
<g id="node15" class="node">
<title>3178</title>
<ellipse fill="white" stroke="black" cx="302.5" cy="-117.67" rx="24.04" ry="24.04"/>
<text text-anchor="middle" x="302.5" y="-114.75" font-family="Times New Roman,serif" font-size="9.00">3178</text>
</g>
<!-- 3178&#45;&gt;NEAT -->
<g id="edge1" class="edge">
<title>3178&#45;&gt;NEAT</title>
<path fill="none" stroke="green" stroke-width="0.13" d="M302.5,-93.39C302.5,-85.59 302.5,-76.68 302.5,-68.04"/>
<polygon fill="green" stroke="green" stroke-width="0.13" points="306,-68.11 302.5,-58.11 299,-68.11 306,-68.11"/>
</g>
<!-- 43498&#45;&gt;3178 -->
<g id="edge3" class="edge">
<title>43498&#45;&gt;3178</title>
<path fill="none" stroke="red" stroke-width="0.47" d="M302.5,-177.43C302.5,-169.36 302.5,-160.4 302.5,-151.95"/>
<polygon fill="red" stroke="red" stroke-width="0.47" points="306,-151.99 302.5,-141.99 299,-151.99 306,-151.99"/>
</g>
</g>
</svg>
