<?xml version="1.0" encoding="utf-8" standalone="no"?>
<!DOCTYPE svg PUBLIC "-//W3C//DTD SVG 1.1//EN"
  "http://www.w3.org/Graphics/SVG/1.1/DTD/svg11.dtd">
<svg xmlns:xlink="http://www.w3.org/1999/xlink" width="460.8pt" height="345.6pt" viewBox="0 0 460.8 345.6" xmlns="http://www.w3.org/2000/svg" version="1.1">
 <metadata>
  <rdf:RDF xmlns:dc="http://purl.org/dc/elements/1.1/" xmlns:cc="http://creativecommons.org/ns#" xmlns:rdf="http://www.w3.org/1999/02/22-rdf-syntax-ns#">
   <cc:Work>
    <dc:type rdf:resource="http://purl.org/dc/dcmitype/StillImage"/>
    <dc:date>2024-06-10T15:29:39.887543</dc:date>
    <dc:format>image/svg+xml</dc:format>
    <dc:creator>
     <cc:Agent>
      <dc:title>Matplotlib v3.8.0, https://matplotlib.org/</dc:title>
     </cc:Agent>
    </dc:creator>
   </cc:Work>
  </rdf:RDF>
 </metadata>
 <defs>
  <style type="text/css">*{stroke-linejoin: round; stroke-linecap: butt}</style>
 </defs>
 <g id="figure_1">
  <g id="patch_1">
   <path d="M 0 345.6 
L 460.8 345.6 
L 460.8 0 
L 0 0 
z
" style="fill: #ffffff"/>
  </g>
  <g id="axes_1">
   <g id="patch_2">
    <path d="M 57.6 307.584 
L 414.72 307.584 
L 414.72 41.472 
L 57.6 41.472 
z
" style="fill: #ffffff"/>
   </g>
   <g id="PolyCollection_1">
    <path d="M 73.832727 54.144 
L 73.832727 307.584 
L 74.483338 307.584 
L 75.133948 307.584 
L 75.784558 307.584 
L 76.435169 307.584 
L 77.085779 307.584 
L 77.736389 307.584 
L 78.386999 307.584 
L 79.03761 307.584 
L 79.68822 307.584 
L 80.33883 307.584 
L 80.989441 307.584 
L 81.640051 307.584 
L 82.290661 307.584 
L 82.941272 307.584 
L 83.591882 307.584 
L 84.242492 307.584 
L 84.893103 307.584 
L 85.543713 307.584 
L 86.194323 307.584 
L 86.844934 307.584 
L 87.495544 307.584 
L 88.146154 307.584 
L 88.796764 307.584 
L 89.447375 307.584 
L 90.097985 307.584 
L 90.748595 307.584 
L 91.399206 307.584 
L 92.049816 307.584 
L 92.700426 307.584 
L 93.351037 307.584 
L 94.001647 307.584 
L 94.652257 307.584 
L 95.302868 307.584 
L 95.953478 307.584 
L 96.604088 307.584 
L 97.254698 307.584 
L 97.905309 307.584 
L 98.555919 307.584 
L 99.206529 307.584 
L 99.85714 307.584 
L 100.50775 307.584 
L 101.15836 307.584 
L 101.808971 307.584 
L 102.459581 307.584 
L 103.110191 307.584 
L 103.760802 307.584 
L 104.411412 307.584 
L 105.062022 307.584 
L 105.712633 307.584 
L 106.363243 307.584 
L 107.013853 307.584 
L 107.664463 307.584 
L 108.315074 307.584 
L 108.965684 307.584 
L 109.616294 307.584 
L 110.266905 307.584 
L 110.917515 307.584 
L 111.568125 307.584 
L 112.218736 307.584 
L 112.869346 307.584 
L 113.519956 307.584 
L 114.170567 307.584 
L 114.821177 307.584 
L 115.471787 307.584 
L 116.122398 307.584 
L 116.773008 307.584 
L 117.423618 307.584 
L 118.074228 307.584 
L 118.724839 307.584 
L 119.375449 307.584 
L 120.026059 307.584 
L 120.67667 307.584 
L 121.32728 307.584 
L 121.97789 307.584 
L 122.628501 307.584 
L 123.279111 307.584 
L 123.929721 307.584 
L 124.580332 307.584 
L 125.230942 307.584 
L 125.881552 307.584 
L 126.532163 307.584 
L 127.182773 307.584 
L 127.833383 307.584 
L 128.483993 307.584 
L 129.134604 307.584 
L 129.785214 307.584 
L 130.435824 307.584 
L 131.086435 307.584 
L 131.737045 307.584 
L 132.387655 307.584 
L 133.038266 307.584 
L 133.688876 307.584 
L 134.339486 307.584 
L 134.990097 307.584 
L 135.640707 307.584 
L 136.291317 307.584 
L 136.941927 307.584 
L 137.592538 307.584 
L 138.243148 307.584 
L 138.893758 307.584 
L 139.544369 307.584 
L 140.194979 307.584 
L 140.845589 307.584 
L 141.4962 307.584 
L 142.14681 307.584 
L 142.79742 307.584 
L 143.448031 307.584 
L 144.098641 307.584 
L 144.749251 307.584 
L 145.399862 307.584 
L 146.050472 307.584 
L 146.701082 307.584 
L 147.351692 307.584 
L 148.002303 307.584 
L 148.652913 307.584 
L 149.303523 307.584 
L 149.954134 307.584 
L 150.604744 307.584 
L 151.255354 307.584 
L 151.905965 307.584 
L 152.556575 307.584 
L 153.207185 307.584 
L 153.857796 307.584 
L 154.508406 307.584 
L 155.159016 307.584 
L 155.809627 307.584 
L 156.460237 307.584 
L 157.110847 307.584 
L 157.761457 307.584 
L 158.412068 307.584 
L 159.062678 307.584 
L 159.713288 307.584 
L 160.363899 307.584 
L 161.014509 307.584 
L 161.665119 307.584 
L 162.31573 307.584 
L 162.96634 307.584 
L 163.61695 307.584 
L 164.267561 307.584 
L 164.918171 307.584 
L 165.568781 307.584 
L 166.219392 307.584 
L 166.870002 307.584 
L 167.520612 307.584 
L 168.171222 307.584 
L 168.821833 307.584 
L 169.472443 307.584 
L 170.123053 307.584 
L 170.773664 307.584 
L 171.424274 307.584 
L 172.074884 307.584 
L 172.725495 307.584 
L 173.376105 307.584 
L 174.026715 307.584 
L 174.677326 307.584 
L 175.327936 307.584 
L 175.978546 307.584 
L 176.629156 307.584 
L 177.279767 307.584 
L 177.930377 307.584 
L 178.580987 307.584 
L 179.231598 307.584 
L 179.882208 307.584 
L 180.532818 307.584 
L 181.183429 307.584 
L 181.834039 307.584 
L 182.484649 307.584 
L 183.13526 307.584 
L 183.78587 307.584 
L 184.43648 307.584 
L 185.087091 307.584 
L 185.737701 307.584 
L 186.388311 307.584 
L 187.038921 307.584 
L 187.689532 307.584 
L 188.340142 307.584 
L 188.990752 307.584 
L 189.641363 307.584 
L 190.291973 307.584 
L 190.942583 307.584 
L 191.593194 307.584 
L 192.243804 307.584 
L 192.894414 307.584 
L 193.545025 307.584 
L 194.195635 307.584 
L 194.846245 307.584 
L 195.496856 307.584 
L 196.147466 307.584 
L 196.798076 307.584 
L 197.448686 307.584 
L 198.099297 307.584 
L 198.749907 307.584 
L 199.400517 307.584 
L 200.051128 307.584 
L 200.701738 307.584 
L 201.352348 307.584 
L 202.002959 307.584 
L 202.653569 307.584 
L 203.304179 307.584 
L 203.95479 307.584 
L 204.6054 307.584 
L 205.25601 307.584 
L 205.906621 307.584 
L 206.557231 307.584 
L 207.207841 307.584 
L 207.858451 307.584 
L 208.509062 307.584 
L 209.159672 307.584 
L 209.810282 307.584 
L 210.460893 307.584 
L 211.111503 307.584 
L 211.762113 307.584 
L 212.412724 307.584 
L 213.063334 307.584 
L 213.713944 307.584 
L 214.364555 307.584 
L 215.015165 307.584 
L 215.665775 307.584 
L 216.316385 307.584 
L 216.966996 307.584 
L 217.617606 307.584 
L 218.268216 307.584 
L 218.918827 307.584 
L 219.569437 307.584 
L 220.220047 307.584 
L 220.870658 307.584 
L 221.521268 307.584 
L 222.171878 307.584 
L 222.822489 307.584 
L 223.473099 307.584 
L 224.123709 307.584 
L 224.77432 307.584 
L 225.42493 307.584 
L 226.07554 307.584 
L 226.72615 307.584 
L 227.376761 307.584 
L 228.027371 307.584 
L 228.677981 307.584 
L 229.328592 307.584 
L 229.979202 307.584 
L 230.629812 307.584 
L 231.280423 307.584 
L 231.931033 307.584 
L 232.581643 307.584 
L 233.232254 307.584 
L 233.882864 307.584 
L 234.533474 307.584 
L 235.184085 307.584 
L 235.834695 307.584 
L 236.485305 307.584 
L 237.135915 307.584 
L 237.786526 307.584 
L 238.437136 307.584 
L 239.087746 307.584 
L 239.738357 307.584 
L 240.388967 307.584 
L 241.039577 307.584 
L 241.690188 307.584 
L 242.340798 307.584 
L 242.991408 307.584 
L 243.642019 307.584 
L 244.292629 307.584 
L 244.943239 307.584 
L 245.59385 307.584 
L 246.24446 307.584 
L 246.89507 307.584 
L 247.54568 307.584 
L 248.196291 307.584 
L 248.846901 307.584 
L 249.497511 307.584 
L 250.148122 307.584 
L 250.798732 307.584 
L 251.449342 307.584 
L 252.099953 307.584 
L 252.750563 307.584 
L 253.401173 307.584 
L 254.051784 307.584 
L 254.702394 307.584 
L 255.353004 307.584 
L 256.003615 307.584 
L 256.654225 307.584 
L 257.304835 307.584 
L 257.955445 307.584 
L 258.606056 307.584 
L 259.256666 307.584 
L 259.907276 307.584 
L 260.557887 307.584 
L 261.208497 307.584 
L 261.859107 307.584 
L 262.509718 307.584 
L 263.160328 307.584 
L 263.810938 307.584 
L 264.461549 307.584 
L 265.112159 307.584 
L 265.762769 307.584 
L 266.413379 307.584 
L 267.06399 307.584 
L 267.7146 307.584 
L 268.36521 307.584 
L 269.015821 307.584 
L 269.666431 307.584 
L 270.317041 307.584 
L 270.967652 307.584 
L 271.618262 307.584 
L 272.268872 307.584 
L 272.919483 307.584 
L 273.570093 307.584 
L 274.220703 307.584 
L 274.871314 307.584 
L 275.521924 307.584 
L 276.172534 307.584 
L 276.823144 307.584 
L 277.473755 307.584 
L 278.124365 307.584 
L 278.774975 307.584 
L 279.425586 307.584 
L 280.076196 307.584 
L 280.726806 307.584 
L 281.377417 307.584 
L 282.028027 307.584 
L 282.678637 307.584 
L 283.329248 307.584 
L 283.979858 307.584 
L 284.630468 307.584 
L 285.281079 307.584 
L 285.931689 307.584 
L 286.582299 307.584 
L 287.232909 307.584 
L 287.88352 307.584 
L 288.53413 307.584 
L 289.18474 307.584 
L 289.835351 307.584 
L 290.485961 307.584 
L 291.136571 307.584 
L 291.787182 307.584 
L 292.437792 307.584 
L 293.088402 307.584 
L 293.739013 307.584 
L 294.389623 307.584 
L 295.040233 307.584 
L 295.690844 307.584 
L 296.341454 307.584 
L 296.992064 307.584 
L 297.642674 307.584 
L 298.293285 307.584 
L 298.943895 307.584 
L 299.594505 307.584 
L 300.245116 307.584 
L 300.895726 307.584 
L 301.546336 307.584 
L 302.196947 307.584 
L 302.847557 307.584 
L 303.498167 307.584 
L 304.148778 307.584 
L 304.799388 307.584 
L 305.449998 307.584 
L 306.100608 307.584 
L 306.751219 307.584 
L 307.401829 307.584 
L 308.052439 307.584 
L 308.70305 307.584 
L 309.35366 307.584 
L 310.00427 307.584 
L 310.654881 307.584 
L 311.305491 307.584 
L 311.956101 307.584 
L 312.606712 307.584 
L 313.257322 307.584 
L 313.907932 307.584 
L 314.558543 307.584 
L 315.209153 307.584 
L 315.859763 307.584 
L 316.510373 307.584 
L 317.160984 307.584 
L 317.811594 307.584 
L 318.462204 307.584 
L 319.112815 307.584 
L 319.763425 307.584 
L 320.414035 307.584 
L 321.064646 307.584 
L 321.715256 307.584 
L 322.365866 307.584 
L 323.016477 307.584 
L 323.667087 307.584 
L 324.317697 307.584 
L 324.968308 307.584 
L 325.618918 307.584 
L 326.269528 307.584 
L 326.920138 307.584 
L 327.570749 307.584 
L 328.221359 307.584 
L 328.871969 307.584 
L 329.52258 307.584 
L 330.17319 307.584 
L 330.8238 307.584 
L 331.474411 307.584 
L 332.125021 307.584 
L 332.775631 307.584 
L 333.426242 307.584 
L 334.076852 307.584 
L 334.727462 307.584 
L 335.378073 307.584 
L 336.028683 307.584 
L 336.679293 307.584 
L 337.329903 307.584 
L 337.980514 307.584 
L 338.631124 307.584 
L 339.281734 307.584 
L 339.932345 307.584 
L 340.582955 307.584 
L 341.233565 307.584 
L 341.884176 307.584 
L 342.534786 307.584 
L 343.185396 307.584 
L 343.836007 307.584 
L 344.486617 307.584 
L 345.137227 307.584 
L 345.787837 307.584 
L 346.438448 307.584 
L 347.089058 307.584 
L 347.739668 307.584 
L 348.390279 307.584 
L 349.040889 307.584 
L 349.691499 307.584 
L 350.34211 307.584 
L 350.99272 307.584 
L 351.64333 307.584 
L 352.293941 307.584 
L 352.944551 307.584 
L 353.595161 307.584 
L 354.245772 307.584 
L 354.896382 307.584 
L 355.546992 307.584 
L 356.197602 307.584 
L 356.848213 307.584 
L 357.498823 307.584 
L 358.149433 307.584 
L 358.800044 307.584 
L 359.450654 307.584 
L 360.101264 307.584 
L 360.751875 307.584 
L 361.402485 307.584 
L 362.053095 307.584 
L 362.703706 307.584 
L 363.354316 307.584 
L 364.004926 307.584 
L 364.655537 307.584 
L 365.306147 307.584 
L 365.956757 307.584 
L 366.607367 307.584 
L 367.257978 307.584 
L 367.908588 307.584 
L 368.559198 307.584 
L 369.209809 307.584 
L 369.860419 307.584 
L 370.511029 307.584 
L 371.16164 307.584 
L 371.81225 307.584 
L 372.46286 307.584 
L 373.113471 307.584 
L 373.764081 307.584 
L 374.414691 307.584 
L 375.065302 307.584 
L 375.715912 307.584 
L 376.366522 307.584 
L 377.017132 307.584 
L 377.667743 307.584 
L 378.318353 307.584 
L 378.968963 307.584 
L 379.619574 307.584 
L 380.270184 307.584 
L 380.920794 307.584 
L 381.571405 307.584 
L 382.222015 307.584 
L 382.872625 307.584 
L 383.523236 307.584 
L 384.173846 307.584 
L 384.824456 307.584 
L 385.475066 307.584 
L 386.125677 307.584 
L 386.776287 307.584 
L 387.426897 307.584 
L 388.077508 307.584 
L 388.728118 307.584 
L 389.378728 307.584 
L 390.029339 307.584 
L 390.679949 307.584 
L 391.330559 307.584 
L 391.98117 307.584 
L 392.63178 307.584 
L 393.28239 307.584 
L 393.933001 307.584 
L 394.583611 307.584 
L 395.234221 307.584 
L 395.884831 307.584 
L 396.535442 307.584 
L 397.186052 307.584 
L 397.836662 307.584 
L 398.487273 307.584 
L 398.487273 54.144 
L 398.487273 54.144 
L 397.836662 54.144 
L 397.186052 54.144 
L 396.535442 54.144 
L 395.884831 54.144 
L 395.234221 54.144 
L 394.583611 54.144 
L 393.933001 54.144 
L 393.28239 54.144 
L 392.63178 54.144 
L 391.98117 54.144 
L 391.330559 54.144 
L 390.679949 54.144 
L 390.029339 54.144 
L 389.378728 54.144 
L 388.728118 54.144 
L 388.077508 54.144 
L 387.426897 54.144 
L 386.776287 54.144 
L 386.125677 54.144 
L 385.475066 54.144 
L 384.824456 54.144 
L 384.173846 54.144 
L 383.523236 54.144 
L 382.872625 54.144 
L 382.222015 54.144 
L 381.571405 54.144 
L 380.920794 54.144 
L 380.270184 54.144 
L 379.619574 54.144 
L 378.968963 54.144 
L 378.318353 54.144 
L 377.667743 54.144 
L 377.017132 54.144 
L 376.366522 54.144 
L 375.715912 54.144 
L 375.065302 54.144 
L 374.414691 54.144 
L 373.764081 54.144 
L 373.113471 54.144 
L 372.46286 54.144 
L 371.81225 54.144 
L 371.16164 54.144 
L 370.511029 54.144 
L 369.860419 54.144 
L 369.209809 54.144 
L 368.559198 54.144 
L 367.908588 54.144 
L 367.257978 54.144 
L 366.607367 54.144 
L 365.956757 54.144 
L 365.306147 54.144 
L 364.655537 54.144 
L 364.004926 54.144 
L 363.354316 54.144 
L 362.703706 54.144 
L 362.053095 54.144 
L 361.402485 54.144 
L 360.751875 54.144 
L 360.101264 54.144 
L 359.450654 54.144 
L 358.800044 54.144 
L 358.149433 54.144 
L 357.498823 54.144 
L 356.848213 54.144 
L 356.197602 54.144 
L 355.546992 54.144 
L 354.896382 54.144 
L 354.245772 54.144 
L 353.595161 54.144 
L 352.944551 54.144 
L 352.293941 54.144 
L 351.64333 54.144 
L 350.99272 54.144 
L 350.34211 54.144 
L 349.691499 54.144 
L 349.040889 54.144 
L 348.390279 54.144 
L 347.739668 54.144 
L 347.089058 54.144 
L 346.438448 54.144 
L 345.787837 54.144 
L 345.137227 54.144 
L 344.486617 54.144 
L 343.836007 54.144 
L 343.185396 54.144 
L 342.534786 54.144 
L 341.884176 54.144 
L 341.233565 54.144 
L 340.582955 54.144 
L 339.932345 54.144 
L 339.281734 54.144 
L 338.631124 54.144 
L 337.980514 54.144 
L 337.329903 54.144 
L 336.679293 54.144 
L 336.028683 54.144 
L 335.378073 54.144 
L 334.727462 54.144 
L 334.076852 54.144 
L 333.426242 54.144 
L 332.775631 54.144 
L 332.125021 54.144 
L 331.474411 54.144 
L 330.8238 54.144 
L 330.17319 54.144 
L 329.52258 54.144 
L 328.871969 54.144 
L 328.221359 54.144 
L 327.570749 54.144 
L 326.920138 54.144 
L 326.269528 54.144 
L 325.618918 54.144 
L 324.968308 54.144 
L 324.317697 54.144 
L 323.667087 54.144 
L 323.016477 54.144 
L 322.365866 54.144 
L 321.715256 54.144 
L 321.064646 54.144 
L 320.414035 54.144 
L 319.763425 54.144 
L 319.112815 54.144 
L 318.462204 54.144 
L 317.811594 54.144 
L 317.160984 54.144 
L 316.510373 54.144 
L 315.859763 54.144 
L 315.209153 54.144 
L 314.558543 54.144 
L 313.907932 54.144 
L 313.257322 54.144 
L 312.606712 54.144 
L 311.956101 54.144 
L 311.305491 54.144 
L 310.654881 54.144 
L 310.00427 54.144 
L 309.35366 54.144 
L 308.70305 54.144 
L 308.052439 54.144 
L 307.401829 54.144 
L 306.751219 54.144 
L 306.100608 54.144 
L 305.449998 54.144 
L 304.799388 54.144 
L 304.148778 54.144 
L 303.498167 54.144 
L 302.847557 54.144 
L 302.196947 54.144 
L 301.546336 54.144 
L 300.895726 54.144 
L 300.245116 54.144 
L 299.594505 54.144 
L 298.943895 54.144 
L 298.293285 54.144 
L 297.642674 54.144 
L 296.992064 54.144 
L 296.341454 54.144 
L 295.690844 54.144 
L 295.040233 54.144 
L 294.389623 54.144 
L 293.739013 54.144 
L 293.088402 54.144 
L 292.437792 54.144 
L 291.787182 54.144 
L 291.136571 54.144 
L 290.485961 54.144 
L 289.835351 54.144 
L 289.18474 54.144 
L 288.53413 54.144 
L 287.88352 54.144 
L 287.232909 54.144 
L 286.582299 54.144 
L 285.931689 54.144 
L 285.281079 54.144 
L 284.630468 54.144 
L 283.979858 54.144 
L 283.329248 54.144 
L 282.678637 54.144 
L 282.028027 54.144 
L 281.377417 54.144 
L 280.726806 54.144 
L 280.076196 54.144 
L 279.425586 54.144 
L 278.774975 54.144 
L 278.124365 54.144 
L 277.473755 54.144 
L 276.823144 54.144 
L 276.172534 54.144 
L 275.521924 54.144 
L 274.871314 54.144 
L 274.220703 54.144 
L 273.570093 54.144 
L 272.919483 54.144 
L 272.268872 54.144 
L 271.618262 54.144 
L 270.967652 54.144 
L 270.317041 54.144 
L 269.666431 54.144 
L 269.015821 54.144 
L 268.36521 54.144 
L 267.7146 54.144 
L 267.06399 54.144 
L 266.413379 54.144 
L 265.762769 54.144 
L 265.112159 54.144 
L 264.461549 54.144 
L 263.810938 54.144 
L 263.160328 54.144 
L 262.509718 54.144 
L 261.859107 54.144 
L 261.208497 54.144 
L 260.557887 54.144 
L 259.907276 54.144 
L 259.256666 54.144 
L 258.606056 54.144 
L 257.955445 54.144 
L 257.304835 54.144 
L 256.654225 54.144 
L 256.003615 54.144 
L 255.353004 54.144 
L 254.702394 54.144 
L 254.051784 54.144 
L 253.401173 54.144 
L 252.750563 54.144 
L 252.099953 54.144 
L 251.449342 54.144 
L 250.798732 54.144 
L 250.148122 54.144 
L 249.497511 54.144 
L 248.846901 54.144 
L 248.196291 54.144 
L 247.54568 54.144 
L 246.89507 54.144 
L 246.24446 54.144 
L 245.59385 54.144 
L 244.943239 54.144 
L 244.292629 54.144 
L 243.642019 54.144 
L 242.991408 54.144 
L 242.340798 54.144 
L 241.690188 54.144 
L 241.039577 54.144 
L 240.388967 54.144 
L 239.738357 54.144 
L 239.087746 54.144 
L 238.437136 54.144 
L 237.786526 54.144 
L 237.135915 54.144 
L 236.485305 54.144 
L 235.834695 54.144 
L 235.184085 54.144 
L 234.533474 54.144 
L 233.882864 54.144 
L 233.232254 54.144 
L 232.581643 54.144 
L 231.931033 54.144 
L 231.280423 54.144 
L 230.629812 54.144 
L 229.979202 54.144 
L 229.328592 54.144 
L 228.677981 54.144 
L 228.027371 54.144 
L 227.376761 54.144 
L 226.72615 54.144 
L 226.07554 54.144 
L 225.42493 54.144 
L 224.77432 54.144 
L 224.123709 54.144 
L 223.473099 54.144 
L 222.822489 54.144 
L 222.171878 54.144 
L 221.521268 54.144 
L 220.870658 54.144 
L 220.220047 54.144 
L 219.569437 54.144 
L 218.918827 54.144 
L 218.268216 54.144 
L 217.617606 54.144 
L 216.966996 54.144 
L 216.316385 54.144 
L 215.665775 54.144 
L 215.015165 54.144 
L 214.364555 54.144 
L 213.713944 54.144 
L 213.063334 54.144 
L 212.412724 54.144 
L 211.762113 54.144 
L 211.111503 54.144 
L 210.460893 54.144 
L 209.810282 54.144 
L 209.159672 54.144 
L 208.509062 54.144 
L 207.858451 54.144 
L 207.207841 54.144 
L 206.557231 54.144 
L 205.906621 54.144 
L 205.25601 54.144 
L 204.6054 54.144 
L 203.95479 54.144 
L 203.304179 54.144 
L 202.653569 54.144 
L 202.002959 54.144 
L 201.352348 54.144 
L 200.701738 54.144 
L 200.051128 54.144 
L 199.400517 54.144 
L 198.749907 54.144 
L 198.099297 54.144 
L 197.448686 54.144 
L 196.798076 54.144 
L 196.147466 54.144 
L 195.496856 54.144 
L 194.846245 54.144 
L 194.195635 54.144 
L 193.545025 54.144 
L 192.894414 54.144 
L 192.243804 54.144 
L 191.593194 54.144 
L 190.942583 54.144 
L 190.291973 54.144 
L 189.641363 54.144 
L 188.990752 54.144 
L 188.340142 54.144 
L 187.689532 54.144 
L 187.038921 54.144 
L 186.388311 54.144 
L 185.737701 54.144 
L 185.087091 54.144 
L 184.43648 54.144 
L 183.78587 54.144 
L 183.13526 54.144 
L 182.484649 54.144 
L 181.834039 54.144 
L 181.183429 54.144 
L 180.532818 54.144 
L 179.882208 54.144 
L 179.231598 54.144 
L 178.580987 54.144 
L 177.930377 54.144 
L 177.279767 54.144 
L 176.629156 54.144 
L 175.978546 54.144 
L 175.327936 54.144 
L 174.677326 54.144 
L 174.026715 54.144 
L 173.376105 54.144 
L 172.725495 54.144 
L 172.074884 54.144 
L 171.424274 54.144 
L 170.773664 54.144 
L 170.123053 54.144 
L 169.472443 54.144 
L 168.821833 54.144 
L 168.171222 54.144 
L 167.520612 54.144 
L 166.870002 54.144 
L 166.219392 54.144 
L 165.568781 54.144 
L 164.918171 54.144 
L 164.267561 54.144 
L 163.61695 54.144 
L 162.96634 54.144 
L 162.31573 54.144 
L 161.665119 54.144 
L 161.014509 54.144 
L 160.363899 54.144 
L 159.713288 54.144 
L 159.062678 54.144 
L 158.412068 54.144 
L 157.761457 54.144 
L 157.110847 54.144 
L 156.460237 54.144 
L 155.809627 54.144 
L 155.159016 54.144 
L 154.508406 54.144 
L 153.857796 54.144 
L 153.207185 54.144 
L 152.556575 54.144 
L 151.905965 54.144 
L 151.255354 54.144 
L 150.604744 54.144 
L 149.954134 54.144 
L 149.303523 54.144 
L 148.652913 54.144 
L 148.002303 54.144 
L 147.351692 54.144 
L 146.701082 54.144 
L 146.050472 54.144 
L 145.399862 54.144 
L 144.749251 54.144 
L 144.098641 54.144 
L 143.448031 54.144 
L 142.79742 54.144 
L 142.14681 54.144 
L 141.4962 54.144 
L 140.845589 54.144 
L 140.194979 54.144 
L 139.544369 54.144 
L 138.893758 54.144 
L 138.243148 54.144 
L 137.592538 54.144 
L 136.941927 54.144 
L 136.291317 54.144 
L 135.640707 54.144 
L 134.990097 54.144 
L 134.339486 54.144 
L 133.688876 54.144 
L 133.038266 54.144 
L 132.387655 54.144 
L 131.737045 54.144 
L 131.086435 54.144 
L 130.435824 54.144 
L 129.785214 54.144 
L 129.134604 54.144 
L 128.483993 54.144 
L 127.833383 54.144 
L 127.182773 54.144 
L 126.532163 54.144 
L 125.881552 54.144 
L 125.230942 54.144 
L 124.580332 54.144 
L 123.929721 54.144 
L 123.279111 54.144 
L 122.628501 54.144 
L 121.97789 54.144 
L 121.32728 54.144 
L 120.67667 54.144 
L 120.026059 54.144 
L 119.375449 54.144 
L 118.724839 54.144 
L 118.074228 54.144 
L 117.423618 54.144 
L 116.773008 54.144 
L 116.122398 54.144 
L 115.471787 54.144 
L 114.821177 54.144 
L 114.170567 54.144 
L 113.519956 54.144 
L 112.869346 54.144 
L 112.218736 54.144 
L 111.568125 54.144 
L 110.917515 54.144 
L 110.266905 54.144 
L 109.616294 54.144 
L 108.965684 54.144 
L 108.315074 54.144 
L 107.664463 54.144 
L 107.013853 54.144 
L 106.363243 54.144 
L 105.712633 54.144 
L 105.062022 54.144 
L 104.411412 54.144 
L 103.760802 54.144 
L 103.110191 54.144 
L 102.459581 54.144 
L 101.808971 54.144 
L 101.15836 54.144 
L 100.50775 54.144 
L 99.85714 54.144 
L 99.206529 54.144 
L 98.555919 54.144 
L 97.905309 54.144 
L 97.254698 54.144 
L 96.604088 54.144 
L 95.953478 54.144 
L 95.302868 54.144 
L 94.652257 54.144 
L 94.001647 54.144 
L 93.351037 54.144 
L 92.700426 54.144 
L 92.049816 54.144 
L 91.399206 54.144 
L 90.748595 54.144 
L 90.097985 54.144 
L 89.447375 54.144 
L 88.796764 54.144 
L 88.146154 54.144 
L 87.495544 54.144 
L 86.844934 54.144 
L 86.194323 54.144 
L 85.543713 54.144 
L 84.893103 54.144 
L 84.242492 54.144 
L 83.591882 54.144 
L 82.941272 54.144 
L 82.290661 54.144 
L 81.640051 54.144 
L 80.989441 54.144 
L 80.33883 54.144 
L 79.68822 54.144 
L 79.03761 54.144 
L 78.386999 54.144 
L 77.736389 54.144 
L 77.085779 54.144 
L 76.435169 54.144 
L 75.784558 54.144 
L 75.133948 54.144 
L 74.483338 54.144 
L 73.832727 54.144 
z
" clip-path="url(#p3a52a33141)" style="fill: #1f77b4"/>
   </g>
   <g id="matplotlib.axis_1">
    <g id="xtick_1">
     <g id="line2d_1">
      <defs>
       <path id="m389af395ab" d="M 0 0 
L 0 3.5 
" style="stroke: #000000; stroke-width: 0.8"/>
      </defs>
      <g>
       <use xlink:href="#m389af395ab" x="73.832727" y="307.584" style="stroke: #000000; stroke-width: 0.8"/>
      </g>
     </g>
     <g id="text_1">
      <!-- 0 -->
      <g transform="translate(70.651477 322.182437) scale(0.1 -0.1)">
       <defs>
        <path id="DejaVuSans-30" d="M 2034 4250 
Q 1547 4250 1301 3770 
Q 1056 3291 1056 2328 
Q 1056 1369 1301 889 
Q 1547 409 2034 409 
Q 2525 409 2770 889 
Q 3016 1369 3016 2328 
Q 3016 3291 2770 3770 
Q 2525 4250 2034 4250 
z
M 2034 4750 
Q 2819 4750 3233 4129 
Q 3647 3509 3647 2328 
Q 3647 1150 3233 529 
Q 2819 -91 2034 -91 
Q 1250 -91 836 529 
Q 422 1150 422 2328 
Q 422 3509 836 4129 
Q 1250 4750 2034 4750 
z
" transform="scale(0.015625)"/>
       </defs>
       <use xlink:href="#DejaVuSans-30"/>
      </g>
     </g>
    </g>
    <g id="xtick_2">
     <g id="line2d_2">
      <g>
       <use xlink:href="#m389af395ab" x="138.893758" y="307.584" style="stroke: #000000; stroke-width: 0.8"/>
      </g>
     </g>
     <g id="text_2">
      <!-- 100 -->
      <g transform="translate(129.350008 322.182437) scale(0.1 -0.1)">
       <defs>
        <path id="DejaVuSans-31" d="M 794 531 
L 1825 531 
L 1825 4091 
L 703 3866 
L 703 4441 
L 1819 4666 
L 2450 4666 
L 2450 531 
L 3481 531 
L 3481 0 
L 794 0 
L 794 531 
z
" transform="scale(0.015625)"/>
       </defs>
       <use xlink:href="#DejaVuSans-31"/>
       <use xlink:href="#DejaVuSans-30" x="63.623047"/>
       <use xlink:href="#DejaVuSans-30" x="127.246094"/>
      </g>
     </g>
    </g>
    <g id="xtick_3">
     <g id="line2d_3">
      <g>
       <use xlink:href="#m389af395ab" x="203.95479" y="307.584" style="stroke: #000000; stroke-width: 0.8"/>
      </g>
     </g>
     <g id="text_3">
      <!-- 200 -->
      <g transform="translate(194.41104 322.182437) scale(0.1 -0.1)">
       <defs>
        <path id="DejaVuSans-32" d="M 1228 531 
L 3431 531 
L 3431 0 
L 469 0 
L 469 531 
Q 828 903 1448 1529 
Q 2069 2156 2228 2338 
Q 2531 2678 2651 2914 
Q 2772 3150 2772 3378 
Q 2772 3750 2511 3984 
Q 2250 4219 1831 4219 
Q 1534 4219 1204 4116 
Q 875 4013 500 3803 
L 500 4441 
Q 881 4594 1212 4672 
Q 1544 4750 1819 4750 
Q 2544 4750 2975 4387 
Q 3406 4025 3406 3419 
Q 3406 3131 3298 2873 
Q 3191 2616 2906 2266 
Q 2828 2175 2409 1742 
Q 1991 1309 1228 531 
z
" transform="scale(0.015625)"/>
       </defs>
       <use xlink:href="#DejaVuSans-32"/>
       <use xlink:href="#DejaVuSans-30" x="63.623047"/>
       <use xlink:href="#DejaVuSans-30" x="127.246094"/>
      </g>
     </g>
    </g>
    <g id="xtick_4">
     <g id="line2d_4">
      <g>
       <use xlink:href="#m389af395ab" x="269.015821" y="307.584" style="stroke: #000000; stroke-width: 0.8"/>
      </g>
     </g>
     <g id="text_4">
      <!-- 300 -->
      <g transform="translate(259.472071 322.182437) scale(0.1 -0.1)">
       <defs>
        <path id="DejaVuSans-33" d="M 2597 2516 
Q 3050 2419 3304 2112 
Q 3559 1806 3559 1356 
Q 3559 666 3084 287 
Q 2609 -91 1734 -91 
Q 1441 -91 1130 -33 
Q 819 25 488 141 
L 488 750 
Q 750 597 1062 519 
Q 1375 441 1716 441 
Q 2309 441 2620 675 
Q 2931 909 2931 1356 
Q 2931 1769 2642 2001 
Q 2353 2234 1838 2234 
L 1294 2234 
L 1294 2753 
L 1863 2753 
Q 2328 2753 2575 2939 
Q 2822 3125 2822 3475 
Q 2822 3834 2567 4026 
Q 2313 4219 1838 4219 
Q 1578 4219 1281 4162 
Q 984 4106 628 3988 
L 628 4550 
Q 988 4650 1302 4700 
Q 1616 4750 1894 4750 
Q 2613 4750 3031 4423 
Q 3450 4097 3450 3541 
Q 3450 3153 3228 2886 
Q 3006 2619 2597 2516 
z
" transform="scale(0.015625)"/>
       </defs>
       <use xlink:href="#DejaVuSans-33"/>
       <use xlink:href="#DejaVuSans-30" x="63.623047"/>
       <use xlink:href="#DejaVuSans-30" x="127.246094"/>
      </g>
     </g>
    </g>
    <g id="xtick_5">
     <g id="line2d_5">
      <g>
       <use xlink:href="#m389af395ab" x="334.076852" y="307.584" style="stroke: #000000; stroke-width: 0.8"/>
      </g>
     </g>
     <g id="text_5">
      <!-- 400 -->
      <g transform="translate(324.533102 322.182437) scale(0.1 -0.1)">
       <defs>
        <path id="DejaVuSans-34" d="M 2419 4116 
L 825 1625 
L 2419 1625 
L 2419 4116 
z
M 2253 4666 
L 3047 4666 
L 3047 1625 
L 3713 1625 
L 3713 1100 
L 3047 1100 
L 3047 0 
L 2419 0 
L 2419 1100 
L 313 1100 
L 313 1709 
L 2253 4666 
z
" transform="scale(0.015625)"/>
       </defs>
       <use xlink:href="#DejaVuSans-34"/>
       <use xlink:href="#DejaVuSans-30" x="63.623047"/>
       <use xlink:href="#DejaVuSans-30" x="127.246094"/>
      </g>
     </g>
    </g>
    <g id="xtick_6">
     <g id="line2d_6">
      <g>
       <use xlink:href="#m389af395ab" x="399.137883" y="307.584" style="stroke: #000000; stroke-width: 0.8"/>
      </g>
     </g>
     <g id="text_6">
      <!-- 500 -->
      <g transform="translate(389.594133 322.182437) scale(0.1 -0.1)">
       <defs>
        <path id="DejaVuSans-35" d="M 691 4666 
L 3169 4666 
L 3169 4134 
L 1269 4134 
L 1269 2991 
Q 1406 3038 1543 3061 
Q 1681 3084 1819 3084 
Q 2600 3084 3056 2656 
Q 3513 2228 3513 1497 
Q 3513 744 3044 326 
Q 2575 -91 1722 -91 
Q 1428 -91 1123 -41 
Q 819 9 494 109 
L 494 744 
Q 775 591 1075 516 
Q 1375 441 1709 441 
Q 2250 441 2565 725 
Q 2881 1009 2881 1497 
Q 2881 1984 2565 2268 
Q 2250 2553 1709 2553 
Q 1456 2553 1204 2497 
Q 953 2441 691 2322 
L 691 4666 
z
" transform="scale(0.015625)"/>
       </defs>
       <use xlink:href="#DejaVuSans-35"/>
       <use xlink:href="#DejaVuSans-30" x="63.623047"/>
       <use xlink:href="#DejaVuSans-30" x="127.246094"/>
      </g>
     </g>
    </g>
    <g id="text_7">
     <!-- Generations -->
     <g transform="translate(205.662344 335.860562) scale(0.1 -0.1)">
      <defs>
       <path id="DejaVuSans-47" d="M 3809 666 
L 3809 1919 
L 2778 1919 
L 2778 2438 
L 4434 2438 
L 4434 434 
Q 4069 175 3628 42 
Q 3188 -91 2688 -91 
Q 1594 -91 976 548 
Q 359 1188 359 2328 
Q 359 3472 976 4111 
Q 1594 4750 2688 4750 
Q 3144 4750 3555 4637 
Q 3966 4525 4313 4306 
L 4313 3634 
Q 3963 3931 3569 4081 
Q 3175 4231 2741 4231 
Q 1884 4231 1454 3753 
Q 1025 3275 1025 2328 
Q 1025 1384 1454 906 
Q 1884 428 2741 428 
Q 3075 428 3337 486 
Q 3600 544 3809 666 
z
" transform="scale(0.015625)"/>
       <path id="DejaVuSans-65" d="M 3597 1894 
L 3597 1613 
L 953 1613 
Q 991 1019 1311 708 
Q 1631 397 2203 397 
Q 2534 397 2845 478 
Q 3156 559 3463 722 
L 3463 178 
Q 3153 47 2828 -22 
Q 2503 -91 2169 -91 
Q 1331 -91 842 396 
Q 353 884 353 1716 
Q 353 2575 817 3079 
Q 1281 3584 2069 3584 
Q 2775 3584 3186 3129 
Q 3597 2675 3597 1894 
z
M 3022 2063 
Q 3016 2534 2758 2815 
Q 2500 3097 2075 3097 
Q 1594 3097 1305 2825 
Q 1016 2553 972 2059 
L 3022 2063 
z
" transform="scale(0.015625)"/>
       <path id="DejaVuSans-6e" d="M 3513 2113 
L 3513 0 
L 2938 0 
L 2938 2094 
Q 2938 2591 2744 2837 
Q 2550 3084 2163 3084 
Q 1697 3084 1428 2787 
Q 1159 2491 1159 1978 
L 1159 0 
L 581 0 
L 581 3500 
L 1159 3500 
L 1159 2956 
Q 1366 3272 1645 3428 
Q 1925 3584 2291 3584 
Q 2894 3584 3203 3211 
Q 3513 2838 3513 2113 
z
" transform="scale(0.015625)"/>
       <path id="DejaVuSans-72" d="M 2631 2963 
Q 2534 3019 2420 3045 
Q 2306 3072 2169 3072 
Q 1681 3072 1420 2755 
Q 1159 2438 1159 1844 
L 1159 0 
L 581 0 
L 581 3500 
L 1159 3500 
L 1159 2956 
Q 1341 3275 1631 3429 
Q 1922 3584 2338 3584 
Q 2397 3584 2469 3576 
Q 2541 3569 2628 3553 
L 2631 2963 
z
" transform="scale(0.015625)"/>
       <path id="DejaVuSans-61" d="M 2194 1759 
Q 1497 1759 1228 1600 
Q 959 1441 959 1056 
Q 959 750 1161 570 
Q 1363 391 1709 391 
Q 2188 391 2477 730 
Q 2766 1069 2766 1631 
L 2766 1759 
L 2194 1759 
z
M 3341 1997 
L 3341 0 
L 2766 0 
L 2766 531 
Q 2569 213 2275 61 
Q 1981 -91 1556 -91 
Q 1019 -91 701 211 
Q 384 513 384 1019 
Q 384 1609 779 1909 
Q 1175 2209 1959 2209 
L 2766 2209 
L 2766 2266 
Q 2766 2663 2505 2880 
Q 2244 3097 1772 3097 
Q 1472 3097 1187 3025 
Q 903 2953 641 2809 
L 641 3341 
Q 956 3463 1253 3523 
Q 1550 3584 1831 3584 
Q 2591 3584 2966 3190 
Q 3341 2797 3341 1997 
z
" transform="scale(0.015625)"/>
       <path id="DejaVuSans-74" d="M 1172 4494 
L 1172 3500 
L 2356 3500 
L 2356 3053 
L 1172 3053 
L 1172 1153 
Q 1172 725 1289 603 
Q 1406 481 1766 481 
L 2356 481 
L 2356 0 
L 1766 0 
Q 1100 0 847 248 
Q 594 497 594 1153 
L 594 3053 
L 172 3053 
L 172 3500 
L 594 3500 
L 594 4494 
L 1172 4494 
z
" transform="scale(0.015625)"/>
       <path id="DejaVuSans-69" d="M 603 3500 
L 1178 3500 
L 1178 0 
L 603 0 
L 603 3500 
z
M 603 4863 
L 1178 4863 
L 1178 4134 
L 603 4134 
L 603 4863 
z
" transform="scale(0.015625)"/>
       <path id="DejaVuSans-6f" d="M 1959 3097 
Q 1497 3097 1228 2736 
Q 959 2375 959 1747 
Q 959 1119 1226 758 
Q 1494 397 1959 397 
Q 2419 397 2687 759 
Q 2956 1122 2956 1747 
Q 2956 2369 2687 2733 
Q 2419 3097 1959 3097 
z
M 1959 3584 
Q 2709 3584 3137 3096 
Q 3566 2609 3566 1747 
Q 3566 888 3137 398 
Q 2709 -91 1959 -91 
Q 1206 -91 779 398 
Q 353 888 353 1747 
Q 353 2609 779 3096 
Q 1206 3584 1959 3584 
z
" transform="scale(0.015625)"/>
       <path id="DejaVuSans-73" d="M 2834 3397 
L 2834 2853 
Q 2591 2978 2328 3040 
Q 2066 3103 1784 3103 
Q 1356 3103 1142 2972 
Q 928 2841 928 2578 
Q 928 2378 1081 2264 
Q 1234 2150 1697 2047 
L 1894 2003 
Q 2506 1872 2764 1633 
Q 3022 1394 3022 966 
Q 3022 478 2636 193 
Q 2250 -91 1575 -91 
Q 1294 -91 989 -36 
Q 684 19 347 128 
L 347 722 
Q 666 556 975 473 
Q 1284 391 1588 391 
Q 1994 391 2212 530 
Q 2431 669 2431 922 
Q 2431 1156 2273 1281 
Q 2116 1406 1581 1522 
L 1381 1569 
Q 847 1681 609 1914 
Q 372 2147 372 2553 
Q 372 3047 722 3315 
Q 1072 3584 1716 3584 
Q 2034 3584 2315 3537 
Q 2597 3491 2834 3397 
z
" transform="scale(0.015625)"/>
      </defs>
      <use xlink:href="#DejaVuSans-47"/>
      <use xlink:href="#DejaVuSans-65" x="77.490234"/>
      <use xlink:href="#DejaVuSans-6e" x="139.013672"/>
      <use xlink:href="#DejaVuSans-65" x="202.392578"/>
      <use xlink:href="#DejaVuSans-72" x="263.916016"/>
      <use xlink:href="#DejaVuSans-61" x="305.029297"/>
      <use xlink:href="#DejaVuSans-74" x="366.308594"/>
      <use xlink:href="#DejaVuSans-69" x="405.517578"/>
      <use xlink:href="#DejaVuSans-6f" x="433.300781"/>
      <use xlink:href="#DejaVuSans-6e" x="494.482422"/>
      <use xlink:href="#DejaVuSans-73" x="557.861328"/>
     </g>
    </g>
   </g>
   <g id="matplotlib.axis_2">
    <g id="ytick_1">
     <g id="line2d_7">
      <defs>
       <path id="mc9ac281f91" d="M 0 0 
L -3.5 0 
" style="stroke: #000000; stroke-width: 0.8"/>
      </defs>
      <g>
       <use xlink:href="#mc9ac281f91" x="57.6" y="307.584" style="stroke: #000000; stroke-width: 0.8"/>
      </g>
     </g>
     <g id="text_8">
      <!-- 0 -->
      <g transform="translate(44.2375 311.383219) scale(0.1 -0.1)">
       <use xlink:href="#DejaVuSans-30"/>
      </g>
     </g>
    </g>
    <g id="ytick_2">
     <g id="line2d_8">
      <g>
       <use xlink:href="#mc9ac281f91" x="57.6" y="256.896" style="stroke: #000000; stroke-width: 0.8"/>
      </g>
     </g>
     <g id="text_9">
      <!-- 50 -->
      <g transform="translate(37.875 260.695219) scale(0.1 -0.1)">
       <use xlink:href="#DejaVuSans-35"/>
       <use xlink:href="#DejaVuSans-30" x="63.623047"/>
      </g>
     </g>
    </g>
    <g id="ytick_3">
     <g id="line2d_9">
      <g>
       <use xlink:href="#mc9ac281f91" x="57.6" y="206.208" style="stroke: #000000; stroke-width: 0.8"/>
      </g>
     </g>
     <g id="text_10">
      <!-- 100 -->
      <g transform="translate(31.5125 210.007219) scale(0.1 -0.1)">
       <use xlink:href="#DejaVuSans-31"/>
       <use xlink:href="#DejaVuSans-30" x="63.623047"/>
       <use xlink:href="#DejaVuSans-30" x="127.246094"/>
      </g>
     </g>
    </g>
    <g id="ytick_4">
     <g id="line2d_10">
      <g>
       <use xlink:href="#mc9ac281f91" x="57.6" y="155.52" style="stroke: #000000; stroke-width: 0.8"/>
      </g>
     </g>
     <g id="text_11">
      <!-- 150 -->
      <g transform="translate(31.5125 159.319219) scale(0.1 -0.1)">
       <use xlink:href="#DejaVuSans-31"/>
       <use xlink:href="#DejaVuSans-35" x="63.623047"/>
       <use xlink:href="#DejaVuSans-30" x="127.246094"/>
      </g>
     </g>
    </g>
    <g id="ytick_5">
     <g id="line2d_11">
      <g>
       <use xlink:href="#mc9ac281f91" x="57.6" y="104.832" style="stroke: #000000; stroke-width: 0.8"/>
      </g>
     </g>
     <g id="text_12">
      <!-- 200 -->
      <g transform="translate(31.5125 108.631219) scale(0.1 -0.1)">
       <use xlink:href="#DejaVuSans-32"/>
       <use xlink:href="#DejaVuSans-30" x="63.623047"/>
       <use xlink:href="#DejaVuSans-30" x="127.246094"/>
      </g>
     </g>
    </g>
    <g id="ytick_6">
     <g id="line2d_12">
      <g>
       <use xlink:href="#mc9ac281f91" x="57.6" y="54.144" style="stroke: #000000; stroke-width: 0.8"/>
      </g>
     </g>
     <g id="text_13">
      <!-- 250 -->
      <g transform="translate(31.5125 57.943219) scale(0.1 -0.1)">
       <use xlink:href="#DejaVuSans-32"/>
       <use xlink:href="#DejaVuSans-35" x="63.623047"/>
       <use xlink:href="#DejaVuSans-30" x="127.246094"/>
      </g>
     </g>
    </g>
    <g id="text_14">
     <!-- Size per Species -->
     <g transform="translate(25.432812 215.520969) rotate(-90) scale(0.1 -0.1)">
      <defs>
       <path id="DejaVuSans-53" d="M 3425 4513 
L 3425 3897 
Q 3066 4069 2747 4153 
Q 2428 4238 2131 4238 
Q 1616 4238 1336 4038 
Q 1056 3838 1056 3469 
Q 1056 3159 1242 3001 
Q 1428 2844 1947 2747 
L 2328 2669 
Q 3034 2534 3370 2195 
Q 3706 1856 3706 1288 
Q 3706 609 3251 259 
Q 2797 -91 1919 -91 
Q 1588 -91 1214 -16 
Q 841 59 441 206 
L 441 856 
Q 825 641 1194 531 
Q 1563 422 1919 422 
Q 2459 422 2753 634 
Q 3047 847 3047 1241 
Q 3047 1584 2836 1778 
Q 2625 1972 2144 2069 
L 1759 2144 
Q 1053 2284 737 2584 
Q 422 2884 422 3419 
Q 422 4038 858 4394 
Q 1294 4750 2059 4750 
Q 2388 4750 2728 4690 
Q 3069 4631 3425 4513 
z
" transform="scale(0.015625)"/>
       <path id="DejaVuSans-7a" d="M 353 3500 
L 3084 3500 
L 3084 2975 
L 922 459 
L 3084 459 
L 3084 0 
L 275 0 
L 275 525 
L 2438 3041 
L 353 3041 
L 353 3500 
z
" transform="scale(0.015625)"/>
       <path id="DejaVuSans-20" transform="scale(0.015625)"/>
       <path id="DejaVuSans-70" d="M 1159 525 
L 1159 -1331 
L 581 -1331 
L 581 3500 
L 1159 3500 
L 1159 2969 
Q 1341 3281 1617 3432 
Q 1894 3584 2278 3584 
Q 2916 3584 3314 3078 
Q 3713 2572 3713 1747 
Q 3713 922 3314 415 
Q 2916 -91 2278 -91 
Q 1894 -91 1617 61 
Q 1341 213 1159 525 
z
M 3116 1747 
Q 3116 2381 2855 2742 
Q 2594 3103 2138 3103 
Q 1681 3103 1420 2742 
Q 1159 2381 1159 1747 
Q 1159 1113 1420 752 
Q 1681 391 2138 391 
Q 2594 391 2855 752 
Q 3116 1113 3116 1747 
z
" transform="scale(0.015625)"/>
       <path id="DejaVuSans-63" d="M 3122 3366 
L 3122 2828 
Q 2878 2963 2633 3030 
Q 2388 3097 2138 3097 
Q 1578 3097 1268 2742 
Q 959 2388 959 1747 
Q 959 1106 1268 751 
Q 1578 397 2138 397 
Q 2388 397 2633 464 
Q 2878 531 3122 666 
L 3122 134 
Q 2881 22 2623 -34 
Q 2366 -91 2075 -91 
Q 1284 -91 818 406 
Q 353 903 353 1747 
Q 353 2603 823 3093 
Q 1294 3584 2113 3584 
Q 2378 3584 2631 3529 
Q 2884 3475 3122 3366 
z
" transform="scale(0.015625)"/>
      </defs>
      <use xlink:href="#DejaVuSans-53"/>
      <use xlink:href="#DejaVuSans-69" x="63.476562"/>
      <use xlink:href="#DejaVuSans-7a" x="91.259766"/>
      <use xlink:href="#DejaVuSans-65" x="143.75"/>
      <use xlink:href="#DejaVuSans-20" x="205.273438"/>
      <use xlink:href="#DejaVuSans-70" x="237.060547"/>
      <use xlink:href="#DejaVuSans-65" x="300.537109"/>
      <use xlink:href="#DejaVuSans-72" x="362.060547"/>
      <use xlink:href="#DejaVuSans-20" x="403.173828"/>
      <use xlink:href="#DejaVuSans-53" x="434.960938"/>
      <use xlink:href="#DejaVuSans-70" x="498.4375"/>
      <use xlink:href="#DejaVuSans-65" x="561.914062"/>
      <use xlink:href="#DejaVuSans-63" x="623.4375"/>
      <use xlink:href="#DejaVuSans-69" x="678.417969"/>
      <use xlink:href="#DejaVuSans-65" x="706.201172"/>
      <use xlink:href="#DejaVuSans-73" x="767.724609"/>
     </g>
    </g>
   </g>
   <g id="patch_3">
    <path d="M 57.6 307.584 
L 57.6 41.472 
" style="fill: none; stroke: #000000; stroke-width: 0.8; stroke-linejoin: miter; stroke-linecap: square"/>
   </g>
   <g id="patch_4">
    <path d="M 414.72 307.584 
L 414.72 41.472 
" style="fill: none; stroke: #000000; stroke-width: 0.8; stroke-linejoin: miter; stroke-linecap: square"/>
   </g>
   <g id="patch_5">
    <path d="M 57.6 307.584 
L 414.72 307.584 
" style="fill: none; stroke: #000000; stroke-width: 0.8; stroke-linejoin: miter; stroke-linecap: square"/>
   </g>
   <g id="patch_6">
    <path d="M 57.6 41.472 
L 414.72 41.472 
" style="fill: none; stroke: #000000; stroke-width: 0.8; stroke-linejoin: miter; stroke-linecap: square"/>
   </g>
   <g id="text_15">
    <!-- Speciation -->
    <g transform="translate(204.714375 35.472) scale(0.12 -0.12)">
     <use xlink:href="#DejaVuSans-53"/>
     <use xlink:href="#DejaVuSans-70" x="63.476562"/>
     <use xlink:href="#DejaVuSans-65" x="126.953125"/>
     <use xlink:href="#DejaVuSans-63" x="188.476562"/>
     <use xlink:href="#DejaVuSans-69" x="243.457031"/>
     <use xlink:href="#DejaVuSans-61" x="271.240234"/>
     <use xlink:href="#DejaVuSans-74" x="332.519531"/>
     <use xlink:href="#DejaVuSans-69" x="371.728516"/>
     <use xlink:href="#DejaVuSans-6f" x="399.511719"/>
     <use xlink:href="#DejaVuSans-6e" x="460.693359"/>
    </g>
   </g>
  </g>
 </g>
 <defs>
  <clipPath id="p3a52a33141">
   <rect x="57.6" y="41.472" width="357.12" height="266.112"/>
  </clipPath>
 </defs>
</svg>
